<svg xmlns="http://www.w3.org/2000/svg" width="259.02" height="50.103" viewBox="0 0 259.02 50.103"><defs><style>.a{fill:#fff;}</style></defs><g transform="translate(-0.4 -0.2)"><path class="a" d="M122.5,36.686V19h2.334v7.261h9.18V19h2.334V36.686h-2.334v-8.35h-9.18v8.35Z" transform="translate(-58.771 -9.049)"/><path class="a" d="M155.5,30.111a6.7,6.7,0,0,1,1.971-5.29,6,6,0,0,1,4.046-1.4,5.7,5.7,0,0,1,4.3,1.712,6.452,6.452,0,0,1,1.66,4.772,8.8,8.8,0,0,1-.726,3.89,5.191,5.191,0,0,1-2.178,2.178,6.3,6.3,0,0,1-3.112.778,5.821,5.821,0,0,1-4.357-1.712A6.944,6.944,0,0,1,155.5,30.111Zm2.23,0a5.385,5.385,0,0,0,1.089,3.682,3.544,3.544,0,0,0,5.394,0,5.535,5.535,0,0,0,1.089-3.734,5.094,5.094,0,0,0-1.089-3.579,3.417,3.417,0,0,0-2.7-1.245,3.538,3.538,0,0,0-2.7,1.193,5.386,5.386,0,0,0-1.089,3.682Zm.415-8.921V18.7h2.282v2.49Zm4.46,0V18.7h2.282v2.49Z" transform="translate(-74.656 -8.905)"/><path class="a" d="M184.4,40.922V28.111h1.971V30.03a5.082,5.082,0,0,1,1.4-1.815,2.23,2.23,0,0,1,1.4-.415,4.257,4.257,0,0,1,2.23.674l-.726,2.023a3.04,3.04,0,0,0-1.608-.467,2.4,2.4,0,0,0-1.3.415,2.9,2.9,0,0,0-.83,1.193,7.925,7.925,0,0,0-.363,2.541V40.87Z" transform="translate(-88.566 -13.285)"/><path class="a" d="M211.743,36.773l2.23.259A5.458,5.458,0,0,1,212,40.092a6.712,6.712,0,0,1-8.143-.622,6.765,6.765,0,0,1-1.66-4.875,7.171,7.171,0,0,1,1.66-5.031,5.558,5.558,0,0,1,4.3-1.763,5.411,5.411,0,0,1,4.2,1.763,6.882,6.882,0,0,1,1.608,4.927v.571H204.43a4.91,4.91,0,0,0,1.193,3.216,3.68,3.68,0,0,0,2.7,1.141,3.346,3.346,0,0,0,2.023-.622A4.036,4.036,0,0,0,211.743,36.773Zm-7.158-3.527h7.158a4.374,4.374,0,0,0-.83-2.438,3.587,3.587,0,0,0-5.187-.259A4.408,4.408,0,0,0,204.586,33.246Z" transform="translate(-97.134 -13.285)"/><path class="a" d="M231.1,40.922V28.111h1.971v1.815a4.587,4.587,0,0,1,4.046-2.127,5.55,5.55,0,0,1,2.126.415A3.173,3.173,0,0,1,240.7,29.3a4.073,4.073,0,0,1,.674,1.608,10.777,10.777,0,0,1,.1,2.127v7.884h-2.178V33.09a5.994,5.994,0,0,0-.259-1.971,2.125,2.125,0,0,0-.882-1.037,2.836,2.836,0,0,0-1.5-.415,3.567,3.567,0,0,0-2.386.882c-.674.571-.985,1.712-.985,3.319v7Z" transform="translate(-111.045 -13.285)"/><path class="a" d="M270.9,36.542V18.7h2.178v6.38a4.919,4.919,0,0,1,3.89-1.763,5.5,5.5,0,0,1,2.49.571,3.129,3.129,0,0,1,1.5,1.556,7.037,7.037,0,0,1,.467,2.9v8.195H279.25V28.347a3.451,3.451,0,0,0-.726-2.386,2.556,2.556,0,0,0-2.023-.726,3.337,3.337,0,0,0-1.815.519,3.107,3.107,0,0,0-1.245,1.349,5.9,5.9,0,0,0-.363,2.386v7.054Z" transform="translate(-130.202 -8.905)"/><path class="a" d="M306.643,36.628l2.282.259a5.742,5.742,0,0,1-1.971,3.06,5.865,5.865,0,0,1-3.683,1.089,5.939,5.939,0,0,1-4.512-1.763A6.851,6.851,0,0,1,297.1,34.4a7.4,7.4,0,0,1,1.66-5.083,5.534,5.534,0,0,1,4.357-1.815,5.6,5.6,0,0,1,4.253,1.763,6.888,6.888,0,0,1,1.66,4.979v.571h-9.647a5.173,5.173,0,0,0,1.193,3.268,3.762,3.762,0,0,0,4.772.519A3.854,3.854,0,0,0,306.643,36.628ZM299.486,33.1H306.7a4.228,4.228,0,0,0-.83-2.438,3.345,3.345,0,0,0-2.7-1.245,3.48,3.48,0,0,0-2.541.985,3.919,3.919,0,0,0-1.141,2.7Z" transform="translate(-142.813 -13.141)"/><path class="a" d="M334.506,41.115V39.2a4.726,4.726,0,0,1-4.1,2.178,5.752,5.752,0,0,1-2.127-.415,3.253,3.253,0,0,1-1.452-1.089,3.774,3.774,0,0,1-.674-1.608A9.27,9.27,0,0,1,326,36.239V28.2h2.178v7.158a11.413,11.413,0,0,0,.156,2.334,2.225,2.225,0,0,0,.882,1.349,2.845,2.845,0,0,0,1.66.467,3.386,3.386,0,0,0,1.867-.519,2.851,2.851,0,0,0,1.245-1.349,6.422,6.422,0,0,0,.363-2.541V28.2h2.178V41.115Z" transform="translate(-156.724 -13.477)"/><path class="a" d="M357.965,34.956l.311,1.919a10.343,10.343,0,0,1-1.66.207,3.862,3.862,0,0,1-1.867-.363,2.133,2.133,0,0,1-.934-.985,7.112,7.112,0,0,1-.259-2.593V25.724H352V24.012h1.608V20.8l2.178-1.3v4.512h2.178v1.712h-2.178V33.3a4.779,4.779,0,0,0,.1,1.193.923.923,0,0,0,.363.415,1.374,1.374,0,0,0,.726.156,9.143,9.143,0,0,0,.985-.1Z" transform="translate(-169.239 -9.29)"/><path class="a" d="M379.043,36.628l2.282.259a5.741,5.741,0,0,1-1.971,3.06,5.865,5.865,0,0,1-3.682,1.089,5.939,5.939,0,0,1-4.512-1.763A6.851,6.851,0,0,1,369.5,34.4a7.4,7.4,0,0,1,1.66-5.083,5.534,5.534,0,0,1,4.357-1.815,5.6,5.6,0,0,1,4.253,1.763,6.888,6.888,0,0,1,1.66,4.979v.571h-9.647a5.173,5.173,0,0,0,1.193,3.268,3.763,3.763,0,0,0,4.772.519A3.854,3.854,0,0,0,379.043,36.628ZM371.886,33.1H379.1a4.228,4.228,0,0,0-.83-2.438,3.345,3.345,0,0,0-2.7-1.245,3.48,3.48,0,0,0-2.541.985A3.919,3.919,0,0,0,371.886,33.1Z" transform="translate(-177.662 -13.141)"/><path class="a" d="M122.5,70.9V61.2h1.3v9.751Z" transform="translate(-58.771 -29.362)"/><path class="a" d="M130,73.209V66.156h1.089v.985A2.48,2.48,0,0,1,133.319,66a3.043,3.043,0,0,1,1.193.207,1.6,1.6,0,0,1,.778.622,2.259,2.259,0,0,1,.363.882,6.338,6.338,0,0,1,.052,1.141v4.357h-1.141V68.9a3.03,3.03,0,0,0-.156-1.089,1.106,1.106,0,0,0-.519-.571,1.522,1.522,0,0,0-.83-.207,1.9,1.9,0,0,0-1.3.467,2.367,2.367,0,0,0-.571,1.815v3.838Z" transform="translate(-62.381 -31.672)"/><path class="a" d="M145.137,70.706v-6.12H144.1v-.934h1.037v-.726a4.541,4.541,0,0,1,.1-1.037,1.5,1.5,0,0,1,.622-.778,2.034,2.034,0,0,1,1.193-.311,8.538,8.538,0,0,1,1.089.1l-.156,1.037a3.424,3.424,0,0,0-.726-.052,1.077,1.077,0,0,0-.778.207,1.3,1.3,0,0,0-.207.882v.674h1.349v.934h-1.349v6.12Z" transform="translate(-69.168 -29.169)"/><path class="a" d="M153,69.682a3.645,3.645,0,0,1,1.089-2.9,3.34,3.34,0,0,1,2.23-.778,3.2,3.2,0,0,1,2.386.934,3.578,3.578,0,0,1,.934,2.645,4.678,4.678,0,0,1-.415,2.127,2.656,2.656,0,0,1-1.193,1.193,3.6,3.6,0,0,1-4.1-.519,3.546,3.546,0,0,1-.934-2.7Zm1.193,0a3.238,3.238,0,0,0,.571,2.023,1.869,1.869,0,0,0,1.5.674,1.941,1.941,0,0,0,1.5-.674,3.869,3.869,0,0,0,0-4.046,1.838,1.838,0,0,0-1.452-.674,1.869,1.869,0,0,0-1.5.674A2.951,2.951,0,0,0,154.193,69.682Z" transform="translate(-73.452 -31.672)"/><path class="a" d="M169.3,73.209V66.156h1.089v1.089a2.313,2.313,0,0,1,.778-.985,1.274,1.274,0,0,1,.778-.259,2.294,2.294,0,0,1,1.245.363l-.415,1.089a1.912,1.912,0,0,0-.882-.259,1.239,1.239,0,0,0-.726.259,1.317,1.317,0,0,0-.467.674,3.975,3.975,0,0,0-.207,1.4v3.682Z" transform="translate(-81.298 -31.672)"/><path class="a" d="M179.1,73.209V66.156h1.089v.985a2.263,2.263,0,0,1,.882-.83A2.464,2.464,0,0,1,182.316,66a2.527,2.527,0,0,1,1.3.311,1.907,1.907,0,0,1,.726.934A2.559,2.559,0,0,1,186.517,66a2.247,2.247,0,0,1,1.608.571,2.532,2.532,0,0,1,.571,1.815v4.824H187.5v-4.46a4.541,4.541,0,0,0-.1-1.037.981.981,0,0,0-.415-.519,1.688,1.688,0,0,0-.726-.207,1.609,1.609,0,0,0-1.245.519,2.291,2.291,0,0,0-.467,1.608v4.1h-1.193V68.645a1.927,1.927,0,0,0-.311-1.193,1.14,1.14,0,0,0-.934-.415,2.113,2.113,0,0,0-.934.259,1.6,1.6,0,0,0-.622.778,5.1,5.1,0,0,0-.207,1.452v3.682Z" transform="translate(-86.015 -31.672)"/><path class="a" d="M206.079,72.38a5.041,5.041,0,0,1-1.3.778,3.581,3.581,0,0,1-1.3.207,2.569,2.569,0,0,1-1.763-.571,1.883,1.883,0,0,1-.622-1.452,1.791,1.791,0,0,1,.259-.934,1.576,1.576,0,0,1,.622-.674,3.481,3.481,0,0,1,.882-.415c.259-.052.571-.1,1.037-.156a10.134,10.134,0,0,0,2.127-.415v-.311a1.267,1.267,0,0,0-.363-1.037,2.092,2.092,0,0,0-1.349-.415,1.994,1.994,0,0,0-1.245.311,1.821,1.821,0,0,0-.571,1.037l-1.193-.156a2.531,2.531,0,0,1,.519-1.193,2.21,2.21,0,0,1,1.037-.726A4.972,4.972,0,0,1,204.471,66a3.744,3.744,0,0,1,1.452.207,2.076,2.076,0,0,1,.83.519,1.755,1.755,0,0,1,.363.83,5.7,5.7,0,0,1,.052,1.089v1.608a19.716,19.716,0,0,0,.052,2.127,2.292,2.292,0,0,0,.311.83h-1.245a3.227,3.227,0,0,1-.207-.83Zm-.1-2.7a12.373,12.373,0,0,1-1.971.467,3.294,3.294,0,0,0-1.037.259,1.129,1.129,0,0,0-.467.363,1.046,1.046,0,0,0-.156.571.933.933,0,0,0,.363.778,1.549,1.549,0,0,0,1.037.311,2.464,2.464,0,0,0,1.245-.311,1.721,1.721,0,0,0,.778-.83,3.289,3.289,0,0,0,.207-1.193Z" transform="translate(-96.605 -31.672)"/><path class="a" d="M219.368,70.054l.156,1.037a5.776,5.776,0,0,1-.882.1,1.743,1.743,0,0,1-.985-.207,1.243,1.243,0,0,1-.519-.519,3.864,3.864,0,0,1-.156-1.4V65.023H216.1V64.09h.882V62.326l1.193-.726v2.49h1.193v.934h-1.193v4.149a1.975,1.975,0,0,0,.052.674.4.4,0,0,0,.207.207.8.8,0,0,0,.415.1,1.534,1.534,0,0,1,.519-.1Z" transform="translate(-103.825 -29.554)"/><path class="a" d="M225.7,62.5V61.1h1.193v1.4Zm0,8.35V63.8h1.193v7.054Z" transform="translate(-108.446 -29.314)"/><path class="a" d="M231.6,69.682a3.645,3.645,0,0,1,1.089-2.9,3.34,3.34,0,0,1,2.23-.778,3.2,3.2,0,0,1,2.386.934,3.578,3.578,0,0,1,.934,2.645,4.678,4.678,0,0,1-.415,2.127,2.656,2.656,0,0,1-1.193,1.193,3.6,3.6,0,0,1-4.1-.519,3.546,3.546,0,0,1-.934-2.7Zm1.193,0a3.238,3.238,0,0,0,.571,2.023,1.869,1.869,0,0,0,1.5.674,1.941,1.941,0,0,0,1.5-.674,3.869,3.869,0,0,0,0-4.046,1.838,1.838,0,0,0-1.452-.674,1.869,1.869,0,0,0-1.5.674A2.951,2.951,0,0,0,232.793,69.682Z" transform="translate(-111.285 -31.672)"/><path class="a" d="M248,73.209V66.156h1.089v.985A2.48,2.48,0,0,1,251.319,66a3.043,3.043,0,0,1,1.193.207,1.6,1.6,0,0,1,.778.622,2.259,2.259,0,0,1,.363.882,6.336,6.336,0,0,1,.052,1.141v4.357h-1.193V68.9a3.03,3.03,0,0,0-.156-1.089,1.106,1.106,0,0,0-.519-.571,1.522,1.522,0,0,0-.83-.207,1.9,1.9,0,0,0-1.3.467,2.367,2.367,0,0,0-.571,1.815v3.838Z" transform="translate(-119.179 -31.672)"/><path class="a" d="M267.987,71.027l1.245.156a2.939,2.939,0,0,1-1.089,1.66,3.627,3.627,0,0,1-4.46-.311,3.607,3.607,0,0,1-.882-2.7,3.754,3.754,0,0,1,.934-2.749,3.057,3.057,0,0,1,2.386-.985,3.022,3.022,0,0,1,2.334.985,3.686,3.686,0,0,1,.882,2.7v.311H264.1a2.606,2.606,0,0,0,.674,1.763,1.963,1.963,0,0,0,1.452.622,1.768,1.768,0,0,0,1.141-.363,3.544,3.544,0,0,0,.622-1.089Zm-3.89-1.971h3.942a2.449,2.449,0,0,0-.467-1.349,1.8,1.8,0,0,0-1.5-.674,2,2,0,0,0-1.4.571A1.952,1.952,0,0,0,264.1,69.056Z" transform="translate(-126.303 -31.72)"/><path class="a" d="M279.1,73.209V66.156h1.089v.985A2.48,2.48,0,0,1,282.419,66a3.043,3.043,0,0,1,1.193.207,1.6,1.6,0,0,1,.778.622,2.259,2.259,0,0,1,.363.882,6.336,6.336,0,0,1,.052,1.141v4.357h-1.193V68.9a3.031,3.031,0,0,0-.156-1.089,1.106,1.106,0,0,0-.519-.571,1.522,1.522,0,0,0-.83-.207,1.9,1.9,0,0,0-1.3.467,2.367,2.367,0,0,0-.571,1.815v3.838Z" transform="translate(-134.149 -31.672)"/><path class="a" d="M302.8,73.209V66.156h1.089v1.089a2.313,2.313,0,0,1,.778-.985,1.274,1.274,0,0,1,.778-.259,2.294,2.294,0,0,1,1.245.363l-.415,1.089a1.912,1.912,0,0,0-.882-.259,1.239,1.239,0,0,0-.726.259,1.317,1.317,0,0,0-.467.674,3.975,3.975,0,0,0-.207,1.4v3.682Z" transform="translate(-145.557 -31.672)"/><path class="a" d="M317.264,73.258V72.22a2.669,2.669,0,0,1-3.371.934,1.6,1.6,0,0,1-.778-.622,2.259,2.259,0,0,1-.363-.882,6.66,6.66,0,0,1-.052-1.141V66.152h1.193v3.89a7.039,7.039,0,0,0,.052,1.245,1.194,1.194,0,0,0,.467.726,1.607,1.607,0,0,0,.882.259,2.145,2.145,0,0,0,.985-.259,1.807,1.807,0,0,0,.674-.726,3.311,3.311,0,0,0,.207-1.4V66.1h1.193v7.054h-1.089Z" transform="translate(-150.322 -31.72)"/><path class="a" d="M328.1,73.209V66.156h1.089v.985A2.48,2.48,0,0,1,331.419,66a3.043,3.043,0,0,1,1.193.207,1.6,1.6,0,0,1,.778.622,2.26,2.26,0,0,1,.363.882,6.336,6.336,0,0,1,.052,1.141v4.357h-1.193V68.9a3.031,3.031,0,0,0-.156-1.089,1.106,1.106,0,0,0-.519-.571,1.522,1.522,0,0,0-.83-.207,1.9,1.9,0,0,0-1.3.467,2.367,2.367,0,0,0-.57,1.815v3.838Z" transform="translate(-157.735 -31.672)"/><path class="a" d="M347.879,70.9v-.882a2.241,2.241,0,0,1-1.971,1.037,2.744,2.744,0,0,1-1.556-.467,2.994,2.994,0,0,1-1.089-1.3,5.253,5.253,0,0,1,0-3.838,2.639,2.639,0,0,1,1.037-1.3,2.744,2.744,0,0,1,1.556-.467,2.827,2.827,0,0,1,1.141.259,2.22,2.22,0,0,1,.83.726V61.2h1.193v9.751Zm-3.786-3.527a3.238,3.238,0,0,0,.571,2.023,1.645,1.645,0,0,0,1.349.674,1.746,1.746,0,0,0,1.349-.622,2.978,2.978,0,0,0,.571-1.971,3.361,3.361,0,0,0-.571-2.127,1.686,1.686,0,0,0-2.7,0,2.779,2.779,0,0,0-.571,2.023Z" transform="translate(-164.858 -29.362)"/><path class="a" d="M372.064,73.258V72.22a2.669,2.669,0,0,1-3.371.934,1.6,1.6,0,0,1-.778-.622,2.259,2.259,0,0,1-.363-.882,6.656,6.656,0,0,1-.052-1.141V66.152h1.193v3.89a7.039,7.039,0,0,0,.052,1.245,1.194,1.194,0,0,0,.467.726,1.607,1.607,0,0,0,.882.259,2.145,2.145,0,0,0,.985-.259,1.807,1.807,0,0,0,.674-.726,3.311,3.311,0,0,0,.207-1.4V66.1h1.193v7.054h-1.089Z" transform="translate(-176.699 -31.72)"/><path class="a" d="M383,73.209V66.156h1.089v.985a2.263,2.263,0,0,1,.882-.83A2.464,2.464,0,0,1,386.216,66a2.526,2.526,0,0,1,1.3.311,1.907,1.907,0,0,1,.726.934A2.559,2.559,0,0,1,390.417,66a2.247,2.247,0,0,1,1.608.571,2.533,2.533,0,0,1,.571,1.815v4.824H391.4v-4.46a4.539,4.539,0,0,0-.1-1.037.981.981,0,0,0-.415-.519,1.688,1.688,0,0,0-.726-.207,1.609,1.609,0,0,0-1.245.519,2.291,2.291,0,0,0-.467,1.608v4.1h-1.193V68.645a1.927,1.927,0,0,0-.311-1.193,1.14,1.14,0,0,0-.934-.415,2.113,2.113,0,0,0-.934.259,1.6,1.6,0,0,0-.622.778,5.1,5.1,0,0,0-.207,1.452v3.682Z" transform="translate(-184.16 -31.672)"/><path class="a" d="M404.8,71.135l1.193-.207a1.6,1.6,0,0,0,.571,1.089,1.874,1.874,0,0,0,1.245.363,2.1,2.1,0,0,0,1.245-.311.985.985,0,0,0,.415-.778.677.677,0,0,0-.363-.622,4.6,4.6,0,0,0-1.245-.415,9.468,9.468,0,0,1-1.815-.571,1.65,1.65,0,0,1-.778-.674,2.113,2.113,0,0,1-.259-.934,1.7,1.7,0,0,1,.207-.882,3.571,3.571,0,0,1,.571-.674,2.176,2.176,0,0,1,.778-.363A3.344,3.344,0,0,1,407.6,66a4.036,4.036,0,0,1,1.452.259,2.11,2.11,0,0,1,.934.622,2.657,2.657,0,0,1,.415,1.089l-1.193.156a1.223,1.223,0,0,0-.467-.83,1.7,1.7,0,0,0-1.089-.311,2.257,2.257,0,0,0-1.193.259.8.8,0,0,0-.363.622.589.589,0,0,0,.156.415,1.055,1.055,0,0,0,.467.311,10.025,10.025,0,0,0,1.037.311,9.964,9.964,0,0,1,1.763.571,2.3,2.3,0,0,1,.778.622,1.646,1.646,0,0,1,.311,1.037,1.867,1.867,0,0,1-.363,1.141,2.235,2.235,0,0,1-.985.83,3.385,3.385,0,0,1-1.5.311,3.3,3.3,0,0,1-2.075-.571,3.37,3.37,0,0,1-.882-1.712Z" transform="translate(-194.653 -31.672)"/><path class="a" d="M428.5,70.9V61.2h1.3v3.994h5.031V61.2h1.3v9.751h-1.3V66.335H429.8v4.616Z" transform="translate(-206.061 -29.362)"/><path class="a" d="M447.1,67.276a3.645,3.645,0,0,1,1.089-2.9,3.34,3.34,0,0,1,2.23-.778,3.2,3.2,0,0,1,2.386.934,3.578,3.578,0,0,1,.934,2.645,4.678,4.678,0,0,1-.415,2.127,2.656,2.656,0,0,1-1.193,1.193,3.6,3.6,0,0,1-4.1-.519,3.546,3.546,0,0,1-.934-2.7Zm1.245,0a3.238,3.238,0,0,0,.571,2.023,1.869,1.869,0,0,0,1.5.674,1.941,1.941,0,0,0,1.5-.674,3.869,3.869,0,0,0,0-4.046,1.839,1.839,0,0,0-1.452-.674,1.869,1.869,0,0,0-1.5.674A2.951,2.951,0,0,0,448.345,67.276Zm.207-4.875V61H449.8v1.349h-1.245Zm2.49,0V61h1.245v1.349h-1.245Z" transform="translate(-215.014 -29.265)"/><path class="a" d="M463.5,73.209V66.156h1.089v1.089a2.313,2.313,0,0,1,.778-.985,1.274,1.274,0,0,1,.778-.259,2.294,2.294,0,0,1,1.245.363l-.415,1.089a1.912,1.912,0,0,0-.882-.259,1.239,1.239,0,0,0-.726.259,1.317,1.317,0,0,0-.467.674,3.975,3.975,0,0,0-.207,1.4v3.682Z" transform="translate(-222.908 -31.672)"/><path class="a" d="M477.687,71.027l1.245.156a2.939,2.939,0,0,1-1.089,1.66,3.627,3.627,0,0,1-4.46-.311,3.607,3.607,0,0,1-.882-2.7,3.754,3.754,0,0,1,.934-2.749,3.057,3.057,0,0,1,2.386-.985,3.022,3.022,0,0,1,2.334.985,3.686,3.686,0,0,1,.882,2.7v.311h-5.342a2.606,2.606,0,0,0,.674,1.763,1.963,1.963,0,0,0,1.452.622,1.768,1.768,0,0,0,1.141-.363,2.376,2.376,0,0,0,.726-1.089Zm-3.89-1.971h3.942a2.449,2.449,0,0,0-.467-1.349,1.8,1.8,0,0,0-1.5-.674,2,2,0,0,0-1.4.571A1.952,1.952,0,0,0,473.8,69.056Z" transform="translate(-227.24 -31.72)"/><path class="a" d="M488.8,73.209V66.156h1.089v.985A2.48,2.48,0,0,1,492.119,66a3.043,3.043,0,0,1,1.193.207,1.6,1.6,0,0,1,.778.622,2.26,2.26,0,0,1,.363.882,6.336,6.336,0,0,1,.052,1.141v4.357h-1.193V68.9a3.03,3.03,0,0,0-.156-1.089,1.106,1.106,0,0,0-.519-.571,1.522,1.522,0,0,0-.83-.207,1.9,1.9,0,0,0-1.3.467,2.367,2.367,0,0,0-.571,1.815v3.838Z" transform="translate(-235.086 -31.672)"/><path class="a" d="M25.4.2A25.051,25.051,0,1,0,50.451,25.251,25.057,25.057,0,0,0,25.4.2Zm0,47.3A22.251,22.251,0,1,1,47.65,25.251,22.279,22.279,0,0,1,25.4,47.5Z" transform="translate(0 0)"/><path class="a" d="M25.806,51.44a.909.909,0,0,1,.882.882v5.187a3.008,3.008,0,1,0,6.016,0v-6.95a.882.882,0,1,1,1.763,0v8.817a3.008,3.008,0,1,0,6.016,0V48.069a.911.911,0,0,1,.778-.934h5.757a1.1,1.1,0,0,0,1.089-1.089,1.053,1.053,0,0,0-1.037-1.089H45.048s-3.112-.1-3.942,0a3.1,3.1,0,0,0-2.749,3.112V59.324a.882.882,0,0,1-1.763,0V50.507a3.008,3.008,0,1,0-6.016,0v6.95a.882.882,0,0,1-1.763,0V52.27a3.01,3.01,0,0,0-3.008-3.008H18.389A1.1,1.1,0,0,0,17.3,50.351a1.064,1.064,0,0,0,1.089,1.089Z" transform="translate(-8.135 -21.521)"/><path class="a" d="M42.9,29.344a.909.909,0,0,1-.882-.882V25.921a3.008,3.008,0,1,0-6.016,0v4.3a.882.882,0,1,1-1.763,0V21.408a3.008,3.008,0,0,0-6.016,0v10.84a.911.911,0,0,1-.778.934H21.689A1.1,1.1,0,0,0,20.6,34.271a1.064,1.064,0,0,0,1.089,1.089h2.023s3.112.1,3.942,0A3.1,3.1,0,0,0,30.4,32.248V21.46a.882.882,0,0,1,1.763,0v8.817a3.008,3.008,0,1,0,6.016,0v-4.3a.882.882,0,1,1,1.763,0v2.541a3.01,3.01,0,0,0,3.008,3.008h7.417a1.1,1.1,0,0,0,1.089-1.089,1.064,1.064,0,0,0-1.089-1.089C50.319,29.292,43.421,29.344,42.9,29.344Z" transform="translate(-9.723 -8.76)"/></g></svg>